<?xml version="1.0" encoding="utf-8"?>
<!-- Generator: Adobe Illustrator 27.1.1, SVG Export Plug-In . SVG Version: 6.00 Build 0)  -->
<svg version="1.1" id="Capa_1" xmlns="http://www.w3.org/2000/svg" xmlns:xlink="http://www.w3.org/1999/xlink" x="0px" y="0px"
	 viewBox="0 0 457.74 228.4" style="enable-background:new 0 0 457.74 228.4;" xml:space="preserve">
<style type="text/css">
	.st0{fill:#F2F0FD;}
	.st1{fill:#808080;}
	.st2{clip-path:url(#SVGID_00000015350192143742074780000008243070895583909508_);}
	.st3{opacity:0.5;fill:#94E1BB;stroke:#FFFFFF;stroke-width:3.9563;stroke-miterlimit:10;}
	.st4{fill:none;stroke:#FFFFFF;stroke-width:3.9563;stroke-miterlimit:10;}
	.st5{opacity:0.5;}
	.st6{fill:#94E1BB;stroke:#FFFFFF;stroke-width:3.9563;stroke-miterlimit:10;}
	.st7{fill:#FFFFFF;}
	.st8{fill:#B4B4B4;}
	.st9{fill:none;stroke:#AC86FF;stroke-width:4.2525;stroke-miterlimit:10;}
	.st10{fill:none;stroke:#AC86FF;stroke-width:4.2525;stroke-linecap:round;stroke-miterlimit:10;}
	.st11{fill:#4A4A4A;}
	.st12{fill:#AC86FF;}
	.st13{opacity:0.3;fill:#8738E8;}
	.st14{fill:#8738E8;}
	.st15{fill:#FF6200;}
	.st16{fill:#8AD1F9;}
	.st17{fill:#E0CEEF;}
	.st18{fill:#D7B1F2;}
	.st19{fill:#C4EA6A;}
	.st20{fill:none;stroke:#000000;stroke-width:3.0855;stroke-miterlimit:10;}
	.st21{fill:none;stroke:#000000;stroke-width:4.3938;stroke-miterlimit:10;}
	.st22{fill:#009A6B;}
	.st23{fill:#1D1D1B;}
	.st24{fill:none;stroke:#000000;stroke-width:2.8657;stroke-miterlimit:10;}
	.st25{fill:url(#SVGID_00000134946870192938466310000002418260883026218671_);}
	.st26{fill:url(#SVGID_00000039119350804314568050000014864726452233674940_);}
	.st27{opacity:0.5;fill:#FF6200;}
	.st28{fill:#F36500;}
	.st29{opacity:0.3;}
	.st30{fill:#FFFF7D;}
	.st31{fill:#F3F3F3;}
	.st32{clip-path:url(#SVGID_00000056427364551634093420000016519103987202936464_);}
	.st33{fill:none;stroke:#AC86FF;stroke-width:6.8237;stroke-miterlimit:10;}
	.st34{fill:none;stroke:#AC86FF;stroke-width:6.8237;stroke-linecap:round;stroke-miterlimit:10;}
	.st35{fill:none;stroke:#FFFFFF;stroke-width:4.2525;stroke-miterlimit:10;}
	.st36{fill:#FCFCFC;}
	.st37{fill:#E1E0EC;}
	.st38{fill:none;stroke:#AC86FF;stroke-width:3.1833;stroke-miterlimit:10;}
	.st39{fill:#9E9E9E;}
	.st40{opacity:0.2;fill:#AC86FF;}
	.st41{clip-path:url(#SVGID_00000069397419710953156030000010849249991056475309_);}
	.st42{clip-path:url(#SVGID_00000088115815929146751150000018300725946638215352_);}
	.st43{fill:#94E1BB;stroke:#FFFFFF;stroke-width:4.2444;stroke-miterlimit:10;}
	.st44{fill:none;stroke:#FFFFFF;stroke-width:4.2444;stroke-miterlimit:10;}
	.st45{fill:none;stroke:#AC86FF;stroke-width:4.2444;stroke-miterlimit:10;}
	.st46{fill:none;stroke:#AC86FF;stroke-width:4.2444;stroke-linecap:round;stroke-miterlimit:10;}
	.st47{clip-path:url(#SVGID_00000179630247896740513020000018317280839197276332_);}
	.st48{opacity:0.56;}
	.st49{fill:#818181;}
	.st50{fill:none;stroke:#4A4A4A;stroke-width:4.2444;stroke-linecap:round;stroke-miterlimit:10;}
	.st51{fill:none;stroke:#E1E0EC;stroke-width:4.2444;stroke-linecap:round;stroke-miterlimit:10;}
</style>
<g>
	<path class="st23" d="M47.65,72.69c-4.56-2.5-9.83-3.75-15.8-3.75c-5.97,0-11.24,1.25-15.8,3.75c-4.56,2.5-8.11,6.06-10.66,10.66
		c-2.54,4.6-3.81,9.97-3.81,16.1v1.58c0,6.22,1.27,11.61,3.81,16.16c2.54,4.56,6.09,8.09,10.66,10.6c4.56,2.5,9.83,3.75,15.8,3.75
		c5.97,0,11.24-1.25,15.8-3.75c4.56-2.5,8.11-6.03,10.66-10.6c2.54-4.56,3.81-9.95,3.81-16.16v-1.58c0-6.13-1.27-11.5-3.81-16.1
		C55.76,78.74,52.21,75.19,47.65,72.69z M52.55,100.78c0,6.78-1.88,12.17-5.63,16.16c-3.75,4-8.78,5.99-15.08,5.99
		c-6.22,0-11.22-2-15.02-5.99c-3.79-4-5.69-9.38-5.69-16.16v-1.09c0-6.78,1.9-12.17,5.69-16.16c3.79-4,8.8-5.99,15.02-5.99
		c6.3,0,11.32,2,15.08,5.99c3.75,4,5.63,9.38,5.63,16.16V100.78z"/>
	<path class="st23" d="M83.07,127.9c4.28,2.42,8.96,3.63,14.05,3.63c6.13,0,10.9-1.17,14.29-3.51c3.39-2.34,5.89-5,7.51-7.99h1.7
		v9.81h9.32V45.08h-9.56v34.87h-1.7c-0.97-1.86-2.34-3.61-4.12-5.27c-1.78-1.65-4.1-3.03-6.96-4.12c-2.87-1.09-6.36-1.64-10.47-1.64
		c-5.17,0-9.87,1.23-14.11,3.69c-4.24,2.46-7.61,5.97-10.11,10.53c-2.5,4.56-3.75,9.99-3.75,16.29v1.58c0,6.3,1.25,11.74,3.75,16.35
		C75.4,121.97,78.79,125.48,83.07,127.9z M78.83,99.69c0-7.02,1.96-12.49,5.87-16.41c3.91-3.91,8.9-5.87,14.95-5.87
		c6.13,0,11.12,1.96,14.95,5.87c3.83,3.92,5.75,9.38,5.75,16.41v1.09c0,7.02-1.92,12.49-5.75,16.41c-3.84,3.92-8.82,5.87-14.95,5.87
		c-6.05,0-11.04-1.96-14.95-5.87c-3.92-3.91-5.87-9.38-5.87-16.41V99.69z"/>
	<path class="st23" d="M200.4,99.45c0-6.13-1.27-11.5-3.81-16.1c-2.54-4.6-6.1-8.15-10.66-10.66c-4.56-2.5-9.83-3.75-15.8-3.75
		c-5.97,0-11.24,1.25-15.8,3.75c-4.56,2.5-8.11,6.06-10.66,10.66c-2.54,4.6-3.81,9.97-3.81,16.1v1.58c0,6.22,1.27,11.61,3.81,16.16
		c2.54,4.56,6.09,8.09,10.66,10.6c4.56,2.5,9.83,3.75,15.8,3.75c5.97,0,11.24-1.25,15.8-3.75c4.56-2.5,8.11-6.03,10.66-10.6
		c2.54-4.56,3.81-9.95,3.81-16.16V99.45z M190.83,100.78c0,6.78-1.88,12.17-5.63,16.16c-3.75,4-8.78,5.99-15.08,5.99
		c-6.22,0-11.22-2-15.02-5.99c-3.79-4-5.69-9.38-5.69-16.16v-1.09c0-6.78,1.9-12.17,5.69-16.16c3.79-4,8.8-5.99,15.02-5.99
		c6.3,0,11.32,2,15.08,5.99c3.75,4,5.63,9.38,5.63,16.16V100.78z"/>
	<path class="st23" d="M254.89,100.42c0,7.35-1.82,12.88-5.45,16.59c-3.63,3.71-8.28,5.57-13.93,5.57c-5.01,0-8.98-1.33-11.93-4
		c-2.95-2.66-4.42-6.94-4.42-12.84V70.63h-9.56v35.84c0,5.25,1.03,9.71,3.09,13.38c2.06,3.67,4.88,6.44,8.48,8.29
		c3.59,1.86,7.53,2.78,11.81,2.78c6.06,0,10.66-1.15,13.8-3.45c3.15-2.3,5.37-4.86,6.66-7.69h1.7v10.05h9.32V70.63h-9.56V100.42z"/>
	<path class="st23" d="M286.73,93.76c0-5,1.31-8.7,3.94-11.08c2.62-2.38,6.07-3.57,10.35-3.57h7.63v-8.72h-7.02
		c-3.55,0-6.42,0.6-8.6,1.82c-2.18,1.21-3.8,3.11-4.84,5.69h-1.7v-7.26h-9.32v59.21h9.56V93.76z"/>
	<path class="st23" d="M41.96,211.27c-2.38,2.38-5.87,3.57-10.47,3.57c-3.07,0-5.83-0.67-8.3-2c-2.46-1.33-4.4-3.31-5.81-5.93
		c-1.41-2.62-2.12-5.83-2.12-9.63v-1.21c0-3.79,0.71-7,2.12-9.63c1.41-2.62,3.35-4.6,5.81-5.93c2.46-1.33,5.23-2,8.3-2
		c3.07,0,5.63,0.57,7.69,1.7c2.06,1.13,3.65,2.66,4.78,4.6c1.13,1.94,1.86,4.12,2.18,6.54l14.77-3.15
		c-0.81-4.44-2.48-8.42-5.03-11.93c-2.54-3.51-5.87-6.28-9.99-8.29c-4.12-2.02-9.04-3.03-14.77-3.03c-5.81,0-11.08,1.21-15.8,3.63
		s-8.46,5.93-11.2,10.54C1.37,183.72,0,189.29,0,195.83v1.7c0,6.54,1.37,12.11,4.12,16.71c2.74,4.6,6.48,8.11,11.2,10.53
		s9.99,3.63,15.8,3.63c5.73,0,10.66-1.01,14.77-3.03s7.45-4.78,9.99-8.3c2.54-3.51,4.34-7.41,5.39-11.68l-14.77-3.51
		C45.85,205.76,44.34,208.89,41.96,211.27z"/>
	<path class="st23" d="M116.12,168.59c-4.76-2.42-10.13-3.63-16.1-3.63c-5.98,0-11.34,1.21-16.1,3.63
		c-4.76,2.42-8.52,5.93-11.26,10.54c-2.75,4.6-4.12,10.13-4.12,16.59v1.94c0,6.46,1.37,11.99,4.12,16.59
		c2.74,4.6,6.5,8.11,11.26,10.53c4.76,2.42,10.13,3.63,16.1,3.63c5.97,0,11.34-1.21,16.1-3.63c4.76-2.42,8.52-5.93,11.26-10.53
		c2.74-4.6,4.12-10.13,4.12-16.59v-1.94c0-6.46-1.37-11.99-4.12-16.59C124.64,174.52,120.89,171.01,116.12,168.59z M116.24,197.28
		c0,5.65-1.53,9.99-4.6,13.02c-3.07,3.03-6.94,4.54-11.62,4.54c-4.68,0-8.56-1.51-11.62-4.54c-3.07-3.03-4.6-7.37-4.6-13.02v-1.21
		c0-5.65,1.53-9.99,4.6-13.02c3.07-3.03,6.94-4.54,11.62-4.54c4.76,0,8.66,1.51,11.68,4.54c3.03,3.03,4.54,7.37,4.54,13.02V197.28z"
		/>
	<rect x="143.12" y="141.95" class="st23" width="15.26" height="84.76"/>
	<rect x="172.91" y="141.95" class="st23" width="15.26" height="84.76"/>
	<path class="st23" d="M245.2,168.89c-4.36-2.62-9.49-3.93-15.38-3.93c-5.98,0-11.22,1.27-15.74,3.81
		c-4.52,2.54-8.03,6.14-10.53,10.78c-2.5,4.64-3.75,10.11-3.75,16.41v1.45c0,6.3,1.27,11.77,3.82,16.41
		c2.54,4.64,6.09,8.23,10.66,10.78c4.56,2.54,9.83,3.82,15.8,3.82c5.49,0,10.01-0.87,13.56-2.6c3.55-1.74,6.4-3.83,8.54-6.3
		c2.14-2.46,3.77-4.74,4.9-6.84l-12.47-6.54c-1.05,2.26-2.58,4.32-4.6,6.18c-2.02,1.86-5.17,2.78-9.44,2.78
		c-4.2,0-7.75-1.29-10.66-3.88c-2.91-2.58-4.44-5.93-4.6-10.05H259v-5.21c0-6.13-1.21-11.52-3.63-16.17
		C252.95,175.15,249.56,171.51,245.2,168.89z M215.41,189.78c0.56-3.47,2.06-6.25,4.48-8.36c2.42-2.1,5.69-3.15,9.81-3.15
		c3.95,0,7.16,1.05,9.63,3.15c2.46,2.1,3.85,4.89,4.18,8.36H215.41z"/>
	<path class="st23" d="M309.19,211.27c-2.38,2.38-5.87,3.57-10.47,3.57c-3.07,0-5.83-0.67-8.3-2c-2.46-1.33-4.4-3.31-5.81-5.93
		c-1.41-2.62-2.12-5.83-2.12-9.63v-1.21c0-3.79,0.71-7,2.12-9.63c1.41-2.62,3.35-4.6,5.81-5.93c2.46-1.33,5.23-2,8.3-2
		c3.07,0,5.63,0.57,7.69,1.7c2.06,1.13,3.65,2.66,4.78,4.6c1.13,1.94,1.86,4.12,2.18,6.54l14.77-3.15
		c-0.81-4.44-2.48-8.42-5.03-11.93c-2.54-3.51-5.87-6.28-9.99-8.29c-4.12-2.02-9.04-3.03-14.77-3.03c-5.81,0-11.08,1.21-15.8,3.63
		s-8.46,5.93-11.2,10.54c-2.75,4.6-4.12,10.17-4.12,16.71v1.7c0,6.54,1.37,12.11,4.12,16.71c2.74,4.6,6.48,8.11,11.2,10.53
		s9.99,3.63,15.8,3.63c5.73,0,10.66-1.01,14.77-3.03s7.45-4.78,9.99-8.3c2.54-3.51,4.34-7.41,5.39-11.68l-14.77-3.51
		C313.09,205.76,311.57,208.89,309.19,211.27z"/>
	<path class="st23" d="M361.68,148h-15.26v18.65h-15.01v12.59h15.01v33.9c0,4.12,1.23,7.41,3.69,9.87c2.46,2.46,5.67,3.69,9.63,3.69
		h16.95v-12.59h-11.62c-2.26,0-3.39-1.21-3.39-3.63v-31.24h16.47v-12.59h-16.47V148z"/>
	<path class="st23" d="M342.42,68.93h9.01c6.92,0,12.52-5.61,12.52-12.52V47.4c0-6.92-5.61-12.52-12.52-12.52h-9.01
		c-6.92,0-12.52,5.61-12.52,12.52v9.01C329.9,63.32,335.51,68.93,342.42,68.93z"/>
	<path class="st23" d="M392.49,89.03c6.55,0,11.86-5.31,11.86-11.86v-10.5c0-6.55-5.31-11.86-11.86-11.86h-10.5
		c-6.55,0-11.86,5.31-11.86,11.86v10.5c0,0.53,0.05,1.05,0.11,1.56c-1.18-0.37-2.44-0.58-3.75-0.58h-27.95
		c-6.88,0-12.46,5.58-12.46,12.46v27.95c0,6.88,5.58,12.46,12.46,12.46h27.95c6.88,0,12.46-5.58,12.46-12.46V90.62
		c0-0.7-0.07-1.38-0.18-2.04c1.02,0.29,2.1,0.45,3.21,0.45H392.49z"/>
	<path class="st23" d="M411.35,97.73h-8.57c-6.83,0-12.37,5.54-12.37,12.37v8.57c0,6.83,5.54,12.37,12.37,12.37h8.57
		c6.83,0,12.37-5.54,12.37-12.37v-8.57C423.72,103.27,418.18,97.73,411.35,97.73z"/>
	<path class="st23" d="M370.84,27.61h5.2c6.19,0,11.21-5.02,11.21-11.21v-5.2c0-6.19-5.02-11.21-11.21-11.21h-5.2
		c-6.19,0-11.21,5.02-11.21,11.21v5.2C359.63,22.59,364.65,27.61,370.84,27.61z"/>
	<path class="st23" d="M410.39,50.18h4.23c6,0,10.87-4.87,10.87-10.87v-4.23c0-6-4.87-10.87-10.87-10.87h-4.23
		c-6,0-10.87,4.87-10.87,10.87v4.23C399.52,45.31,404.39,50.18,410.39,50.18z"/>
	<path class="st23" d="M447.79,9.98h-1.57c-5.5,0-9.95,4.46-9.95,9.95v1.57c0,5.5,4.46,9.95,9.95,9.95h1.57
		c5.5,0,9.95-4.46,9.95-9.95v-1.57C457.74,14.44,453.29,9.98,447.79,9.98z"/>
	<path class="st23" d="M433,58.19h-1.57c-5.5,0-9.95,4.46-9.95,9.95v1.57c0,5.5,4.46,9.95,9.95,9.95H433c5.5,0,9.95-4.46,9.95-9.95
		v-1.57C442.95,62.65,438.49,58.19,433,58.19z"/>
</g>
</svg>
